<?xml version="1.0" encoding="UTF-8" standalone="no"?>
<!-- Created with Inkscape (http://www.inkscape.org/) -->

<svg
   xmlns:dc="http://purl.org/dc/elements/1.1/"
   xmlns:cc="http://creativecommons.org/ns#"
   xmlns:rdf="http://www.w3.org/1999/02/22-rdf-syntax-ns#"
   xmlns:svg="http://www.w3.org/2000/svg"
   xmlns="http://www.w3.org/2000/svg"
   xmlns:xlink="http://www.w3.org/1999/xlink"
   xmlns:sodipodi="http://sodipodi.sourceforge.net/DTD/sodipodi-0.dtd"
   xmlns:inkscape="http://www.inkscape.org/namespaces/inkscape"
   width="97"
   height="97"
   id="svg2"
   version="1.1"
   inkscape:version="0.48.4 r9939"
   sodipodi:docname="icon.svg">
  <title
     id="title4998">concrete5 - Package button</title>
  <defs
     id="defs4">
    <linearGradient
       inkscape:collect="always"
       id="linearGradient4976">
      <stop
         style="stop-color:#4d4d4d;stop-opacity:1;"
         offset="0"
         id="stop4978" />
      <stop
         style="stop-color:#4d4d4d;stop-opacity:0;"
         offset="1"
         id="stop4980" />
    </linearGradient>
    <linearGradient
       inkscape:collect="always"
       id="linearGradient4951">
      <stop
         style="stop-color:#4d4d4d;stop-opacity:1;"
         offset="0"
         id="stop4953" />
      <stop
         style="stop-color:#4d4d4d;stop-opacity:0;"
         offset="1"
         id="stop4955" />
    </linearGradient>
    <linearGradient
       inkscape:collect="always"
       id="linearGradient4941">
      <stop
         style="stop-color:#ffffff;stop-opacity:1;"
         offset="0"
         id="stop4943" />
      <stop
         style="stop-color:#ffffff;stop-opacity:0;"
         offset="1"
         id="stop4945" />
    </linearGradient>
    <linearGradient
       inkscape:collect="always"
       id="linearGradient4884">
      <stop
         style="stop-color:#ffffff;stop-opacity:1;"
         offset="0"
         id="stop4886" />
      <stop
         style="stop-color:#ffffff;stop-opacity:0;"
         offset="1"
         id="stop4888" />
    </linearGradient>
    <linearGradient
       inkscape:collect="always"
       xlink:href="#linearGradient4884"
       id="linearGradient4892"
       x1="48.508839"
       y1="1.6175926"
       x2="48.491165"
       y2="45.081493"
       gradientUnits="userSpaceOnUse" />
    <filter
       inkscape:collect="always"
       id="filter4930">
      <feGaussianBlur
         inkscape:collect="always"
         stdDeviation="0.7153125"
         id="feGaussianBlur4932" />
    </filter>
    <linearGradient
       inkscape:collect="always"
       xlink:href="#linearGradient4941"
       id="linearGradient4947"
       x1="47.669491"
       y1="4.0618773"
       x2="48.054512"
       y2="26.217873"
       gradientUnits="userSpaceOnUse" />
    <linearGradient
       inkscape:collect="always"
       xlink:href="#linearGradient4951"
       id="linearGradient4957"
       x1="49.105488"
       y1="1066.283"
       x2="47.894512"
       y2="1007.355"
       gradientUnits="userSpaceOnUse" />
    <linearGradient
       inkscape:collect="always"
       xlink:href="#linearGradient4976"
       id="linearGradient4982"
       x1="44.911812"
       y1="96.621147"
       x2="46.606033"
       y2="58.246056"
       gradientUnits="userSpaceOnUse" />
    <filter
       inkscape:collect="always"
       id="filter4992">
      <feGaussianBlur
         inkscape:collect="always"
         stdDeviation="0.71625"
         id="feGaussianBlur4994" />
    </filter>
    <linearGradient
       inkscape:collect="always"
       xlink:href="#linearGradient4976"
       id="linearGradient4996"
       gradientUnits="userSpaceOnUse"
       x1="44.911812"
       y1="96.621147"
       x2="46.606033"
       y2="58.246056" />
  </defs>
  <sodipodi:namedview
     id="base"
     pagecolor="#ffffff"
     bordercolor="#666666"
     borderopacity="1.0"
     inkscape:pageopacity="0.0"
     inkscape:pageshadow="2"
     inkscape:zoom="2.8284271"
     inkscape:cx="161"
     inkscape:cy="48.593765"
     inkscape:document-units="px"
     inkscape:current-layer="package"
     showgrid="false"
     showborder="true"
     inkscape:window-width="1600"
     inkscape:window-height="837"
     inkscape:window-x="-8"
     inkscape:window-y="-8"
     inkscape:window-maximized="1" />
  <metadata
     id="metadata7">
    <rdf:RDF>
      <cc:Work
         rdf:about="">
        <dc:format>image/svg+xml</dc:format>
        <dc:type
           rdf:resource="http://purl.org/dc/dcmitype/StillImage" />
        <dc:title>concrete5 - Package button</dc:title>
        <dc:creator>
          <cc:Agent>
            <dc:title>Michele Locati</dc:title>
          </cc:Agent>
        </dc:creator>
        <cc:license
           rdf:resource="http://artlibre.org/licence/lal" />
      </cc:Work>
      <cc:License
         rdf:about="http://artlibre.org/licence/lal">
        <cc:permits
           rdf:resource="http://creativecommons.org/ns#Reproduction" />
        <cc:permits
           rdf:resource="http://creativecommons.org/ns#Distribution" />
        <cc:permits
           rdf:resource="http://creativecommons.org/ns#DerivativeWorks" />
        <cc:requires
           rdf:resource="http://creativecommons.org/ns#ShareAlike" />
        <cc:requires
           rdf:resource="http://creativecommons.org/ns#Notice" />
        <cc:requires
           rdf:resource="http://creativecommons.org/ns#Attribution" />
      </cc:License>
    </rdf:RDF>
  </metadata>
  <g
     inkscape:label="Button - background"
     inkscape:groupmode="layer"
     id="buttonBackground"
     transform="translate(0,-955.36218)"
     style="display:inline"
     sodipodi:insensitive="true">
    <path
       sodipodi:type="inkscape:offset"
       inkscape:radius="-2.9301505"
       inkscape:original="M 5.75 955.375 C 2.561283 955.375 0 957.93628 0 961.125 L 0 1046.5938 C 0 1049.7825 2.561283 1052.375 5.75 1052.375 L 91.25 1052.375 C 94.438717 1052.375 97 1049.7824 97 1046.5938 L 97 961.125 C 97 957.93628 94.438717 955.375 91.25 955.375 L 5.75 955.375 z "
       style="fill:#0000ff;fill-rule:evenodd;stroke:none"
       id="path5029"
       d="m 5.75,958.3125 c -1.6196563,0 -2.8125,1.19284 -2.8125,2.8125 l 0,85.4688 c 0,1.6196 1.2119693,2.8437 2.8125,2.8437 l 85.5,0 c 1.600469,0 2.8125,-1.2243 2.8125,-2.8437 l 0,-85.4688 c 0,-1.61966 -1.192844,-2.8125 -2.8125,-2.8125 l -85.5,0 z" />
  </g>
  <g
     inkscape:groupmode="layer"
     id="package"
     inkscape:label="Package"
     style="display:inline">
    <text
       xml:space="preserve"
       style="font-size:40px;font-style:normal;font-weight:normal;line-height:125%;letter-spacing:0px;word-spacing:0px;fill:#ffffff;fill-opacity:1;stroke:none;display:inline;font-family:Sans"
       x="6"
       y="42"
       id="text3080"
       sodipodi:linespacing="125%"><tspan
         sodipodi:role="line"
         id="tspan3082"
         x="6"
         y="42">a</tspan></text>
    <g
       transform="matrix(0.3654486,0,0,0.3654486,10.634262,25.51894)"
       style="font-size:13.83416176px;font-style:normal;font-variant:normal;font-weight:normal;font-stretch:normal;text-align:start;line-height:125%;letter-spacing:0px;word-spacing:0px;writing-mode:tb-rl;text-anchor:start;fill:#ffffff;fill-opacity:1;stroke:none;display:inline;font-family:Times New Roman;-inkscape-font-specification:Times New Roman"
       id="text2987">
      <path
         style="font-size:133.40084839px;font-style:normal;font-variant:normal;font-weight:normal;font-stretch:normal;text-align:start;line-height:125%;letter-spacing:0px;word-spacing:0px;writing-mode:tb-rl;text-anchor:start;fill:#ffffff;fill-opacity:1;stroke:none;font-family:KaiTi;-inkscape-font-specification:KaiTi"
         id="path2998-1"
         d="m 115.85833,48.79707 c 4.86349,2.77927 6.86102,4.86366 5.99261,6.25317 -0.86857,1.38967 -1.99762,4.86364 -3.38713,10.42194 5.55829,-1.04213 9.37966,-2.17117 11.46414,-3.38713 2.08429,-1.21582 4.25553,-1.38952 6.51371,-0.5211 2.25799,0.86857 4.08182,1.91076 5.47152,3.12659 1.38949,1.21595 1.30264,2.5187 -0.26055,3.90822 -1.56339,1.38966 -3.90833,6.07953 -7.03481,14.06962 8.33745,-1.04214 14.33006,-1.82378 17.97785,-2.34493 3.64756,-0.52105 6.77414,0.0869 9.37975,1.82384 2.60535,1.73704 3.5607,2.95293 2.86603,3.647678 -0.69492,0.69484 -2.95301,0.95539 -6.77426,0.78164 -3.8215,-0.17365 -9.55356,0.0869 -17.19621,0.78165 -7.64285,0.69484 -15.80669,1.65018 -24.49155,2.86603 -8.68503,1.21594 -14.85134,2.08443 -18.498952,2.60549 -3.64774,0.52113 -6.34007,0.26058 -8.07701,-0.78165 -1.73704,-1.04215 -3.03978,-1.9975 -3.90822,-2.86603 -0.86855,-0.86845 0.60789,-1.3027 4.42932,-1.30275 3.82132,5e-5 9.03229,-0.52105 15.632912,-1.56329 1.38953,-3.126528 2.77912,-8.163798 4.16878,-15.111808 -5.21104,0.69486 -8.85871,0.52116 -10.943042,-0.5211 -2.08445,-1.04213 -3.03979,-1.82377 -2.86603,-2.34494 0.17364,-0.52103 1.47638,-0.78158 3.908232,-0.78164 2.43172,6e-5 6.42679,-0.34733 11.98523,-1.04219 1.73691,-9.03228 2.08431,-14.93804 1.04219,-17.71731 -3.47405,9e-5 -6.34008,-0.60786 -8.5981,-1.82383 -2.25815,-1.21581 -2.43185,-1.99746 -0.5211,-2.34494 1.91063,-0.34731 4.08186,-0.60786 6.51372,-0.78165 2.43171,-0.17361 6.51363,-0.95525 12.24578,-2.34493 5.73198,-1.3895 9.9876,-2.51855 12.76688,-3.38713 2.77908,-0.86841 5.47141,-0.78156 8.077,0.26054 2.60538,1.04229 3.64757,1.99763 3.12658,2.86604 -0.5212,0.86858 -3.64778,1.99763 -9.37974,3.38713 -5.73217,1.38968 -12.94067,2.77927 -21.62553,4.16877 z m 23.44937,72.95359 c 3.47387,3.12659 4.42921,4.77673 2.86603,4.95043 -1.5634,0.1737 -3.56093,0.26055 -5.99262,0.26054 -2.43188,1e-5 -11.81162,0.69481 -28.13924,2.08439 -0.69486,6.25316 -1.65021,8.51125 -2.86603,6.77426 -1.21596,-1.73699 -2.08446,-4.51617 -2.60549,-8.33755 -0.52116,-3.82137 -1.21595,-7.90329 -2.08439,-12.24578 -0.868552,-4.34245 -2.258142,-7.90328 -4.168772,-10.68249 -1.91075,-2.77915 -0.86855,-3.82135 3.12658,-3.12658 3.995012,0.69482 7.903242,0.86852 11.724682,0.5211 3.82131,-0.34737 7.99008,-1.12902 12.50633,-2.344942 4.51609,-1.21586 7.55582,-2.1712 9.1192,-2.86604 1.5632,-0.69476 3.73443,-0.52106 6.51372,0.5211 2.77907,1.04223 5.21086,2.43182 7.29535,4.168782 2.08428,1.73702 2.17113,3.47401 0.26055,5.21097 -1.9108,1.73701 -4.42943,6.77428 -7.5559,15.11181 z M 80.944818,114.9764 c 3.82134,3.82139 3.64764,5.99263 -0.52109,6.51372 -4.16882,0.5211 -9.90088,1.65015 -17.19621,3.38713 -0.34742,2.43179 -0.69482,4.25563 -1.04219,5.47152 -0.34742,1.21589 -0.95537,1.38959 -1.82384,0.52109 -0.86852,-0.86849 -1.99756,-4.60302 -3.38713,-11.20358 -1.38961,-6.60055 -2.9529,-11.20357 -4.68987,-13.80908 -1.73701,-2.60545 -1.47646,-3.7345 0.78164,-3.38713 2.25807,0.34743 4.25561,0.52113 5.99262,0.5211 1.73697,3e-5 4.4293,-0.43422 8.077,-1.30274 3.64765,-0.86847 6.25313,-1.910662 7.81646,-3.126592 1.56325,-1.21585 3.64764,-1.38955 6.25316,-0.52109 2.60544,0.86853 4.51613,1.82387 5.73207,2.866032 1.21584,1.04223 1.04214,2.43182 -0.5211,4.16878 -1.56333,1.73701 -3.38717,5.03729 -5.47152,9.90084 z m 25.012662,-7.81645 c 0.34733,5.21099 0.86843,10.94305 1.5633,17.1962 5.21089,-0.69479 13.72213,-1.56328 25.53375,-2.60549 1.73689,-9.72712 2.34484,-15.45918 1.82384,-17.1962 -0.52119,-1.73696 -3.73462,-1.91066 -9.64029,-0.5211 -5.90585,1.38962 -12.33271,2.43182 -19.2806,3.12659 z M 91.366768,55.05024 c 2.43173,1.38967 0.69474,2.51871 -5.21097,3.38713 -5.90581,0.86857 -11.72473,2.17131 -17.45676,3.90823 -5.73209,1.73706 -9.72716,3.0398 -11.98523,3.90823 -2.2581,0.86856 -4.42934,1.12911 -6.51371,0.78164 -2.0844,-0.34733 -4.25564,-1.47637 -6.51372,-3.38713 -2.25809,-1.91062 -1.99754,-2.86596 0.78165,-2.86603 3.12657,7e-5 9.29288,-0.95527 18.49895,-2.86604 9.20601,-1.91061 15.71972,-3.3002 19.54114,-4.16877 3.82133,-0.86842 6.77421,-0.43417 8.85865,1.30274 z m 25.533752,15.11181 c -1.73707,5.55843 -3.47405,10.7694 -5.21097,15.632918 4.5161,-0.694748 10.24816,-1.563248 17.1962,-2.605488 1.3895,-6.25311 2.0843,-10.24818 2.08439,-11.98523 -9e-5,-1.73693 -0.86858,-2.60542 -2.60548,-2.60549 -1.73708,7e-5 -5.55846,0.52116 -11.46414,1.56329 z m -55.757382,37.51899 c 0.34737,2.77921 0.86847,7.12168 1.56329,13.02743 l 13.02742,-3.64768 c 0.34736,-2.43177 0.69476,-5.2978 1.0422,-8.5981 0.34736,-3.30026 -0.43429,-4.7767 -2.34494,-4.42933 -1.91072,0.34743 -6.34004,1.56332 -13.28797,3.64768 z m 11.46413,-74.51688 c 3.47394,10e-5 6.60052,0.43435 9.37975,1.30275 2.77914,0.86859 4.60297,1.99763 5.47152,3.38713 0.86844,1.38968 1.04214,3.56092 0.5211,6.51371 -0.52115,2.95297 -1.99759,3.73461 -4.42933,2.34494 -2.43183,-1.38951 -5.73211,-3.99499 -9.90084,-7.81646 -4.16881,-3.82128 -4.51621,-5.73197 -1.0422,-5.73207 z m 8.85865,37.51899 c 2.43174,0.34746 3.64763,1.04226 3.64768,2.08439 -5e-5,1.04225 -2.17128,2.17129 -6.51371,3.38713 -4.34251,1.21595 -7.72964,1.82389 -10.16139,1.82384 -2.43182,5e-5 -4.6899,-0.52104 -6.77427,-1.56329 -2.08441,-1.04214 -1.56331,-1.91063 1.56329,-2.60549 3.12656,-0.69473 6.42684,-1.56323 9.90085,-2.60548 3.47394,-1.04213 6.25312,-1.21583 8.33755,-0.5211 z m 1.0422,13.02743 c 2.43174,0.34744 2.77913,1.21594 1.04219,2.605478 -1.73703,1.38964 -4.95046,2.69238 -9.6403,3.90823 -4.6899,1.21594 -8.33758,1.21594 -10.94303,0 -2.60551,-1.21585 -3.12661,-2.08434 -1.5633,-2.60548 1.56327,-0.52106 3.82136,-1.129 6.77427,-1.82384 2.95285,-0.694748 5.55833,-1.389548 7.81645,-2.084388 2.25805,-0.69475 4.42929,-0.69475 6.51372,0 z"
         inkscape:connector-curvature="0" />
    </g>
    <text
       xml:space="preserve"
       style="font-size:40px;font-style:normal;font-variant:normal;font-weight:normal;font-stretch:normal;text-align:start;line-height:125%;letter-spacing:0px;word-spacing:0px;writing-mode:lr-tb;text-anchor:start;fill:#ffffff;fill-opacity:1;stroke:none;display:inline;font-family:Sans;-inkscape-font-specification:Sans"
       x="69.537109"
       y="42.085938"
       id="text3057"
       sodipodi:linespacing="125%"><tspan
         sodipodi:role="line"
         id="tspan3063"
         x="69.537109"
         y="42.085938">β</tspan></text>
    <text
       xml:space="preserve"
       style="font-size:22px;font-style:normal;font-variant:normal;font-weight:normal;font-stretch:normal;text-align:start;line-height:125%;letter-spacing:0px;word-spacing:0px;writing-mode:lr-tb;text-anchor:start;fill:#00ff00;fill-opacity:1;stroke:none;display:inline;font-family:Sans;-inkscape-font-specification:Sans"
       x="3.4902344"
       y="92.600586"
       id="text5000"
       sodipodi:linespacing="125%"><tspan
         sodipodi:role="line"
         id="tspan5002"
         x="3.4902344"
         y="92.600586"
         style="font-size:22px;font-style:normal;font-variant:normal;font-weight:normal;font-stretch:normal;text-align:start;line-height:125%;writing-mode:lr-tb;text-anchor:start;font-family:Sans;-inkscape-font-specification:Sans">Localizer</tspan></text>
  </g>
  <g
     inkscape:groupmode="layer"
     id="buttonForegroupd"
     inkscape:label="Button - Foreground"
     style="display:inline"
     sodipodi:insensitive="true">
    <path
       style="fill:#0000c7;fill-opacity:1;fill-rule:evenodd;stroke:none"
       d="M 5.75,0 C 2.561283,0 0,2.56128 0,5.75 l 0,85.5 C 0,94.4387 2.561283,97 5.75,97 l 85.5,0 C 94.438717,97 97,94.4387 97,91.25 L 97,5.75 C 97,2.56128 94.438717,0 91.25,0 L 5.75,0 z m 0,2.9375 85.5,0 c 1.619656,0 2.8125,1.19284 2.8125,2.8125 l 0,85.46875 c 0,1.6194 -1.212031,2.84375 -2.8125,2.84375 l -85.5,0 c -1.6005307,0 -2.8125,-1.22415 -2.8125,-2.84375 l 0,-85.46875 c 0,-1.61966 1.1928437,-2.8125 2.8125,-2.8125 z"
       id="ButtonBorder"
       inkscape:connector-curvature="0" />
    <path
       sodipodi:type="inkscape:offset"
       inkscape:radius="-0.81393069"
       inkscape:original="M 5.75 0 C 2.561283 0 0 2.56128 0 5.75 L 0 91.25 C 0 94.4387 2.561283 97 5.75 97 L 91.25 97 C 94.438717 97 97 94.4387 97 91.25 L 97 5.75 C 97 2.56128 94.438717 0 91.25 0 L 5.75 0 z M 5.75 2.9375 L 91.25 2.9375 C 92.869656 2.9375 94.0625 4.13034 94.0625 5.75 L 94.0625 91.21875 C 94.0625 92.83815 92.850469 94.0625 91.25 94.0625 L 5.75 94.0625 C 4.1494693 94.0625 2.9375 92.83835 2.9375 91.21875 L 2.9375 5.75 C 2.9375 4.13034 4.1303437 2.9375 5.75 2.9375 z "
       style="fill:url(#linearGradient4892);fill-opacity:1;fill-rule:evenodd;stroke:none;filter:url(#filter4930)"
       id="ButtonBorderLight"
       d="m 5.75,0.8125 c -2.7528668,0 -4.9375,2.1846303 -4.9375,4.9375 l 0,85.5 c 0,2.752847 2.1846366,4.9375 4.9375,4.9375 l 85.5,0 c 2.752863,0 4.9375,-2.184653 4.9375,-4.9375 l 0,-85.5 c 0,-2.7528697 -2.184633,-4.9375 -4.9375,-4.9375 l -85.5,0 z m 0,1.3125 85.5,0 c 2.019284,0 3.625,1.605712 3.625,3.625 l 0,85.46875 c 0,2.025521 -1.609429,3.65625 -3.625,3.65625 l -85.5,0 c -2.0155486,0 -3.625,-1.6306 -3.625,-3.65625 L 2.125,5.75 c 0,-2.0192879 1.6057161,-3.625 3.625,-3.625 z"
       transform="translate(0,-1.07912)" />
    <path
       sodipodi:type="inkscape:offset"
       inkscape:radius="-0.76141053"
       inkscape:original="M 5.75 0 C 2.561283 0 0 2.56128 0 5.75 L 0 91.25 C 0 94.4387 2.561283 97 5.75 97 L 91.25 97 C 94.438717 97 97 94.4387 97 91.25 L 97 5.75 C 97 2.56128 94.438717 0 91.25 0 L 5.75 0 z M 5.75 2.9375 L 91.25 2.9375 C 92.869656 2.9375 94.0625 4.13034 94.0625 5.75 L 94.0625 91.21875 C 94.0625 92.83815 92.850469 94.0625 91.25 94.0625 L 5.75 94.0625 C 4.1494693 94.0625 2.9375 92.83835 2.9375 91.21875 L 2.9375 5.75 C 2.9375 4.13034 4.1303437 2.9375 5.75 2.9375 z "
       style="fill:url(#linearGradient4996);fill-opacity:1;fill-rule:evenodd;stroke:none;filter:url(#filter4992)"
       id="ButtonBorderDark"
       d="m 5.75,0.75 c -2.7809907,0 -5,2.2190064 -5,5 l 0,85.5 c 0,2.780971 2.2190125,5 5,5 l 85.5,0 c 2.780988,0 5,-2.219029 5,-5 l 0,-85.5 c 0,-2.7809936 -2.219009,-5 -5,-5 l -85.5,0 z m 0,1.4375 85.5,0 c 1.993497,0 3.5625,1.5689986 3.5625,3.5625 l 0,85.46875 c 0,1.999316 -1.573714,3.59375 -3.5625,3.59375 l -85.5,0 c -1.9887689,0 -3.5625,-1.594301 -3.5625,-3.59375 l 0,-85.46875 c 0,-1.9935013 1.5690027,-3.5625 3.5625,-3.5625 z"
       transform="matrix(1,0,0,1.0046627,0,0.37004)" />
    <path
       style="fill:url(#linearGradient4947);fill-opacity:1;fill-rule:evenodd;stroke:none"
       d="m 5.75,3.9375 c -1.1271444,0 -1.8125,0.68535 -1.8125,1.8125 l 0,12.375 c 11.422672,3.566698 26.914456,5.78125 44,5.78125 17.650475,0 33.606792,-2.347392 45.125,-6.125 l 0,-12.03125 c 0,-1.12715 -0.685356,-1.8125 -1.8125,-1.8125 l -85.5,0 z"
       id="ButtonShadowLight"
       inkscape:connector-curvature="0" />
    <path
       transform="translate(0,-955.36218)"
       d="m 5.75,958.3125 c -1.6196563,0 -2.8125,1.19284 -2.8125,2.8125 l 0,85.4688 c 0,1.6196 1.2119693,2.8437 2.8125,2.8437 l 85.5,0 c 1.600469,0 2.8125,-1.2243 2.8125,-2.8437 l 0,-85.4688 c 0,-1.61966 -1.192844,-2.8125 -2.8125,-2.8125 l -85.5,0 z"
       id="ButtonShadowDark"
       style="fill:url(#linearGradient4957);fill-opacity:1;fill-rule:evenodd;stroke:none"
       inkscape:original="M 5.75 955.375 C 2.561283 955.375 0 957.93628 0 961.125 L 0 1046.5938 C 0 1049.7825 2.561283 1052.375 5.75 1052.375 L 91.25 1052.375 C 94.438717 1052.375 97 1049.7824 97 1046.5938 L 97 961.125 C 97 957.93628 94.438717 955.375 91.25 955.375 L 5.75 955.375 z "
       inkscape:radius="-2.9301505"
       sodipodi:type="inkscape:offset" />
  </g>
</svg>
